<svg width="97" height="97" fill="none" xmlns="http://www.w3.org/2000/svg"><path fill-rule="evenodd" clip-rule="evenodd" d="M5.012 27.003A48.301 48.301 0 000 48.5c0 4.68.663 9.206 1.9 13.487.453-.775.955-1.527 1.507-2.258 2.457-3.218 5.62-5.674 9.49-7.368s7.8-2.343 11.792-1.949c4.032.378 7.667 1.767 10.907 4.168 3.28 2.384 5.8 5.589 7.562 9.615 1.763 4.026 2.416 8.071 1.96 12.137-.473 4.026-1.919 7.64-4.337 10.84-2.255 2.987-5.143 5.317-8.662 6.992A48.415 48.415 0 0048.5 97C75.286 97 97 75.286 97 48.5S75.286 0 48.5 0c-5.196 0-10.2.817-14.894 2.33l8.009 11.048c2.354 3.247 3.654 6.495 3.9 9.742.245 3.247-.393 6.292-1.916 9.135-1.488 2.817-3.666 5.265-6.533 7.344-2.868 2.078-5.842 3.391-8.923 3.938-3.072.488-6.078.085-9.018-1.21-2.966-1.328-5.626-3.616-7.98-6.863l-6.133-8.461zm18.436-20.04a48.743 48.743 0 00-12.012 10.254l8.608 11.876c1.578 2.176 3.328 3.464 5.25 3.862 1.922.398 3.92-.154 5.992-1.656 2.073-1.503 3.237-3.242 3.49-5.218.255-1.976-.407-4.052-1.985-6.228l-9.343-12.89zM17.96 85.635a11.532 11.532 0 01-2.013-1.182 48.815 48.815 0 01-2.461-2.392c-.87-1.101-1.631-2.394-2.281-3.879-1.608-3.674-1.906-7.014-.893-10.019 1.053-3.022 3.24-5.26 6.562-6.715 3.283-1.437 6.381-1.489 9.294-.156 2.934 1.277 5.197 3.733 6.788 7.368 1.574 3.596 1.844 6.925.808 9.986-.996 3.045-3.135 5.285-6.419 6.723-3.322 1.454-6.45 1.543-9.385.266zm54.906-9.294c-3.01 1.317-5.92 2.009-8.732 2.076-2.812.066-5.36-.542-7.645-1.824-2.246-1.299-3.998-3.28-5.257-5.943l10.67-4.67c.825 1.455 1.866 2.397 3.124 2.824 1.24.388 2.585.266 4.03-.367 1.486-.65 2.513-1.496 3.082-2.537.552-1.08.563-2.226.032-3.437-.445-1.017-1.164-1.703-2.159-2.06-.955-.373-2.035-.552-3.24-.537-1.165-.003-2.786.125-4.862.382-3.017.343-5.546.471-7.586.386-2.04-.085-4.016-.663-5.93-1.736-1.913-1.072-3.434-2.898-4.563-5.477-1.677-3.83-1.598-7.428.236-10.792 1.817-3.404 4.953-6.081 9.409-8.032 4.534-1.985 8.667-2.49 12.4-1.516 3.717.935 6.52 3.294 8.409 7.078l-10.847 4.748c-.66-1.294-1.602-2.116-2.826-2.465-1.24-.389-2.565-.275-3.972.341-1.212.53-2.043 1.29-2.495 2.28-.469.95-.438 2.032.092 3.243.582 1.33 1.66 2.091 3.237 2.287 1.576.195 3.88.14 6.915-.163 3.051-.265 5.577-.346 7.578-.244 2.04.085 4.008.644 5.904 1.677s3.383 2.781 4.461 5.243c1.027 2.346 1.354 4.741.98 7.187-.334 2.428-1.386 4.705-3.157 6.831-1.771 2.126-4.2 3.865-7.288 5.217z" fill="#66DB79"/></svg>